<svg id="SalarSVG" xmlns="http://www.w3.org/2000/svg" xmlns:xlink="http://www.w3.org/1999/xlink" width="140" height="140" viewBox="0 0 140 140">
  <defs>
    <radialGradient id="radial-gradient" cx="0.222" cy="0.158" r="1.531" gradientTransform="matrix(-0.366, 0.452, -0.118, -0.568, -2.168, -5.174)" gradientUnits="objectBoundingBox">
      <stop offset="0.339" stop-color="#c4c4c4" stop-opacity="0.518"/>
      <stop offset="0.761" stop-color="#c4c4c4" stop-opacity="0"/>
      <stop offset="0.858" stop-color="#c4c4c4"/>
    </radialGradient>
  </defs>
  <rect id="Rectangle_1" data-name="Rectangle 1" width="140" height="140" fill="#2b2a28"/>
  <path id="Path_1" data-name="Path 1" d="M246.344,262.9l-43.151,20.534a.775.775,0,0,0,.537,1.448l55.018-15.01a.775.775,0,0,0,.123-1.451L247,262.9A.775.775,0,0,0,246.344,262.9Z" transform="translate(-171.317 -222.082)" fill="#c4c4c4"/>
  <path id="Path_2" data-name="Path 2" d="M343.517,513.748,386.6,493.114a.775.775,0,0,0-.541-1.446L331.109,506.8a.775.775,0,0,0-.12,1.451l11.868,5.5A.775.775,0,0,0,343.517,513.748Z" transform="translate(-279.299 -415.422)" fill="#c4c4c4"/>
  <path id="Path_3" data-name="Path 3" d="M530.01,569.689l-2.252,5.19-1.7-2.737-.816-1.14.21-.909-1.093-.688,2.537.5.413-.275Z" transform="translate(-443.072 -481.134)" fill="#2b2a28"/>
  <path id="Path_4" data-name="Path 4" d="M475.136,319.727l-7.642,1.083,2.251-3.586-1.477-.473,1.553-.76-.486-1.356,2.231,2.5.721.2Z" transform="translate(-395.023 -265.86)" fill="#2b2a28"/>
  <path id="Path_5" data-name="Path 5" d="M409.177,598.18l-1.753,1.835-.721-.8-.21.909.6.679-.961,1.286.415-1.3-.889-1.1-1.334-.517h1.5l.189-.591,1.4.449Z" transform="translate(-341.644 -505.45)" fill="#2b2a28"/>
  <path id="Path_6" data-name="Path 6" d="M583.727,551.27l-2.252,5.19-3.4-5.475Z" transform="translate(-488.462 -465.571)" fill="#2b2a28"/>
  <path id="Path_7" data-name="Path 7" d="M372.22,562.792l-1.265,1.049-.481.741.4.289-.8.721-.183,1.081.082,1.309-.861-2.942-1,.821.009-1.3-.78-.378-.771-1.677Z" transform="translate(-309.743 -475.307)" fill="#2b2a28"/>
  <path id="Path_8" data-name="Path 8" d="M474.555,255.857l-1.265,1.05-.481.741.4.289-.8.721-.183,1.081.082,1.309-.861-2.942-1,.821.009-1.3-.78-.378-.771-1.677Z" transform="translate(-396.214 -215.953)" fill="#2b2a28"/>
  <path id="Path_9" data-name="Path 9" d="M493.68,525.334l.394.406.092.445-.228.4.239.305-.1.848-.26,1.143.89-2.828.311.316.217-1.1.417-.62.634-1.72Z" transform="translate(-417.149 -441.862)" fill="#2b2a28"/>
  <path id="Path_10" data-name="Path 10" d="M441.684,563.66l-.7-1.773-.915-.7-.868,1.187.015-.809-3.335-.163,2.345-.561.96.307.535-.4.659-.278-.62-.605.948-.673.78-.4.99-1.314-1.108,1.684-.531.644-.276.989.841.676Z" transform="translate(-368.306 -471.057)" fill="#2b2a28"/>
  <path id="Path_11" data-name="Path 11" d="M440.481,294.528l.94,1.66,1,.568.7-1.294.1.8,3.326-.293-2.247.875-.993-.173-.24.861-.236-.393-.615.365.7.515-.847.8-.717.5-.8,1.437.868-1.819.439-.71.139-1.017-.926-.555Z" transform="translate(-372.197 -248.87)" fill="#2b2a28"/>
  <path id="Path_12" data-name="Path 12" d="M335.123,344.62l.976,2.129.983.954.6-1.188.13.912,3.155.776-2.1.217-.954-.518-.253.791-.682.02-.277.866-.526.578-.694,1.31.74-1.706.384-.633.083-1.068-.909-.914Z" transform="translate(-283.172 -291.197)" fill="#2b2a28"/>
  <path id="Path_13" data-name="Path 13" d="M515.631,272.884l-.7-1.773-.915-.7-.868,1.187.015-.809-3.335-.163,2.345-.561.96.307.534-.4.659-.277-.62-.605.948-.673.78-.4.99-1.314-1.108,1.683-.531.644-.276.988.841.676Z" transform="translate(-430.79 -225.358)" fill="#2b2a28"/>
  <path id="Path_14" data-name="Path 14" d="M486.2,573.288l-3.033-5.671-2.589-2.662-.9,2.908-.649-2.365-7.422-2.691,4.025.32,2.982,1.129.832-.815,1.2-.378.438-1.655-.8-1.88,1.365-.661,1.055-3.2-1,4.206-.619,1.537.23,2.718,2.408,2.544Z" transform="translate(-398.502 -469.525)" fill="#2b2a28"/>
  <path id="Path_15" data-name="Path 15" d="M363.644,349.278l-3.033-5.671-2.589-2.662-.9,2.908-.649-2.365-7.422-2.691,4.025.32,2.982,1.129.832-.815,1.2-.377.438-1.655-.8-1.881,1.365-.661,1.055-3.2-1,4.206-.619,1.537.23,2.718,2.408,2.544Z" transform="translate(-294.943 -280.242)" fill="#2b2a28"/>
  <path id="Path_16" data-name="Path 16" d="M372.583,351.917l-1.6-4.638-1.621-2.323-1,2.072-.21-1.857-5.216-2.949,2.96.743,2.09,1.221.714-.508.941-.133.517-1.188-.378-1.512,1.093-.326,1.156-2.272-1.232,3.033-.639,1.077-.143,2.07,1.5,2.211Z" transform="translate(-306.668 -285.812)" fill="#2b2a28"/>
  <path id="Path_17" data-name="Path 17" d="M323.909,279.866l-3.033-5.671-2.589-2.662-.9,2.908-.649-2.365-7.422-2.691,4.025.32,2.982,1.129.832-.815,1.2-.378.438-1.655-.8-1.88,1.365-.661,1.055-3.2-1,4.206-.619,1.537.23,2.718,2.408,2.544Z" transform="translate(-261.368 -221.59)" fill="#2b2a28"/>
  <path id="Path_18" data-name="Path 18" d="M514.55,516.156l1.35-1.348.281-1.117-1.433-.328.749-.306-1.168-3.128,1.442,1.933.1,1,.577.333.515.5.311-.809.993.6.677.557,1.6.39-1.984-.353-.8-.234-1.017.137-.289,1.04Z" transform="translate(-434.597 -430.879)" fill="#2b2a28"/>
  <path id="Path_19" data-name="Path 19" d="M568.576,531.732l1.323-1.158-1.2.524,1.38-1.025.278-.55-.43.054-.088-.818.286.387.4-.728-1.13.191.18-.167.395-.328-1.217-.6.641.119-.363-.268-.938-.748,1.823,1.112,1.106.991.717.121,3.209-1.131-1.094.748.1.337-.473-.154-.7.928-.546-.491-1.091,0-.532.983.823-.339-.45.852Z" transform="translate(-480.028 -444.983)" fill="#2b2a28"/>
  <path id="Path_20" data-name="Path 20" d="M397.481,278.8l-1.087-1.382.461,1.222L395.9,277.2l-.534-.306.031.433-.821.045.4-.265-.706-.435.132,1.138-.157-.189-.306-.411-.662,1.184.152-.634-.286.348-.8.9,1.206-1.762,1.047-1.052.159-.71-.961-3.264.69,1.132.342-.083-.179.464.372,1.263-.162-.534,1.057,2.207L395.027,275Z" transform="translate(-331.528 -230.021)" fill="#2b2a28"/>
  <path id="Path_21" data-name="Path 21" d="M200.15,378.876l.3-1.954-.6,1.219.432-1.847-.129-.733-.3.3-2.216-1.509,2.1.946-.148-.987-.555-.025-1.178.057,1.11-.042-1.327.05.575-.233-.452-.079-1.2-.262,2.123.151,1.487.424.636-.273,1.792-2.979-.383,1.4.291.3-.466.1.041,1.364-.735-.211-.853.607.2,1.33.429-.816.185,1.146Z" transform="translate(-166.085 -313.57)" fill="#2b2a28"/>
  <path id="Path_22" data-name="Path 22" d="M312.932,565.794l2.1-.046-1.487-.435,2.045.119.681-.289-.429-.28.563-2.778-.047,2.536.929-.36-.215-.626-.566-1.308.521,1.234-.623-1.476.483.6-.116-.521-.255-1.4.764,2.406.215,1.748.549.658,3.772,1.419-2.037-.213-.738-.236-.628.494.228-.8-1.312-.9-1.251.49,1.007.319-1.073.434Z" transform="translate(-264.421 -473.834)" fill="#2b2a28"/>
  <path id="Path_23" data-name="Path 23" d="M280.677,337.024l-1.244,1.578.567-1.456-1.1,1.657-.589.314.06-.532-2.2-1.578,1.736,1.8-.78.453-.3-.617-.554-1.38.531,1.292-.635-1.545.124.8-.284-.466-.8-1.208,1.18,2.327,1.054,1.429.126.9-1.225,3.922,1.034-1.718.268-.737.7-.125-.673-.405.155-1.656,1.053-.606-.367,1,.913-.51Z" transform="translate(-232.551 -284.029)" fill="#2b2a28"/>
  <path id="Path_24" data-name="Path 24" d="M646.822,459.132l-.937,2.213,1.213-1.463L645.992,462l.018.781.531-.387.688.775-.648-.179-.016,1.057,1.358-1.068-.122.311-.292.642,2.026-.32-.93.372.666,0,1.762.048-3.184.258-2.153-.169-1.031.427-3.445,3.639.921-1.614-.368-.27.732-.205.27-1.493,1.064.085,1.442-.839.016-1.424-.85.984,0-1.225Z" transform="translate(-541.817 -387.957)" fill="#2b2a28"/>
  <path id="Path_25" data-name="Path 25" d="M257.363,473.533q-.083-.315.127-.37a.226.226,0,0,1,.279.087q.244.32.435.559a5.781,5.781,0,0,0,.589.535,3.461,3.461,0,0,0,.78.468,3.4,3.4,0,0,0,.95.2,3.611,3.611,0,0,0,1.187-.119,2.741,2.741,0,0,0,1.646-1.057,2.036,2.036,0,0,0,.28-1.74,1.64,1.64,0,0,0-.772-1.047,2.664,2.664,0,0,0-1.242-.395q-.655-.053-1.671-.138a10.141,10.141,0,0,1-1.681-.3,2.552,2.552,0,0,1-1.943-1.846,2.712,2.712,0,0,1,.4-2.381,3.94,3.94,0,0,1,2.306-1.471,4.6,4.6,0,0,1,1.416-.1q.858.031.873.027a.49.49,0,0,0,.149-.1.476.476,0,0,1,.164-.107q.2-.051.256.061.792,1.731.85,1.956.11.42-.1.475-.135.035-.265-.155a4.3,4.3,0,0,0-.545-.61,2.291,2.291,0,0,0-.33-.282q-.095-.055-.484-.257a2.949,2.949,0,0,0-2.153-.2,2.7,2.7,0,0,0-1.441.859,1.465,1.465,0,0,0-.311,1.38,1.739,1.739,0,0,0,.651,1.015,2.538,2.538,0,0,0,1.167.415q.678.078,1.408.111a9.852,9.852,0,0,1,1.578.211,4.467,4.467,0,0,1,1.5.569,2.342,2.342,0,0,1,1.021,1.447,3.356,3.356,0,0,1-.347,2.768,3.68,3.68,0,0,1-2.249,1.568,9.576,9.576,0,0,1-1.7.317,4.472,4.472,0,0,1-1.408-.111q-.227-.069-.772-1.047A8.63,8.63,0,0,1,257.363,473.533Z" transform="translate(-216.498 -392.257)" fill="#fff"/>
  <path id="Path_26" data-name="Path 26" d="M257.363,473.533q-.083-.315.127-.37a.226.226,0,0,1,.279.087q.244.32.435.559a5.781,5.781,0,0,0,.589.535,3.461,3.461,0,0,0,.78.468,3.4,3.4,0,0,0,.95.2,3.611,3.611,0,0,0,1.187-.119,2.741,2.741,0,0,0,1.646-1.057,2.036,2.036,0,0,0,.28-1.74,1.64,1.64,0,0,0-.772-1.047,2.664,2.664,0,0,0-1.242-.395q-.655-.053-1.671-.138a10.141,10.141,0,0,1-1.681-.3,2.552,2.552,0,0,1-1.943-1.846,2.712,2.712,0,0,1,.4-2.381,3.94,3.94,0,0,1,2.306-1.471,4.6,4.6,0,0,1,1.416-.1q.858.031.873.027a.49.49,0,0,0,.149-.1.476.476,0,0,1,.164-.107q.2-.051.256.061.792,1.731.85,1.956.11.42-.1.475-.135.035-.265-.155a4.3,4.3,0,0,0-.545-.61,2.291,2.291,0,0,0-.33-.282q-.095-.055-.484-.257a2.949,2.949,0,0,0-2.153-.2,2.7,2.7,0,0,0-1.441.859,1.465,1.465,0,0,0-.311,1.38,1.739,1.739,0,0,0,.651,1.015,2.538,2.538,0,0,0,1.167.415q.678.078,1.408.111a9.852,9.852,0,0,1,1.578.211,4.467,4.467,0,0,1,1.5.569,2.342,2.342,0,0,1,1.021,1.447,3.356,3.356,0,0,1-.347,2.768,3.68,3.68,0,0,1-2.249,1.568,9.576,9.576,0,0,1-1.7.317,4.472,4.472,0,0,1-1.408-.111q-.227-.069-.772-1.047A8.63,8.63,0,0,1,257.363,473.533Z" transform="translate(-216.498 -392.257)" fill="#fff"/>
  <path id="Path_27" data-name="Path 27" d="M344.176,421.722a1.726,1.726,0,0,1-.011-.959,1.463,1.463,0,0,1,.525-.747,5.627,5.627,0,0,1,.873-.582q.463-.25,1.136-.555a.938.938,0,0,1,.131-.051.405.405,0,0,1,.116-.047c.047-.023.09-.045.127-.065a.562.562,0,0,0,.127-.065.149.149,0,0,0,.059-.08.25.25,0,0,0,.006-.162q-.039-.15-.091-.409t-.084-.379a1.493,1.493,0,0,0-.818-1.1,1.619,1.619,0,0,0-1.062-.138q-1.08.284-.843,1.183a1.958,1.958,0,0,0,.109.292,1.922,1.922,0,0,1,.093.232q.079.3-.191.371a2.16,2.16,0,0,1-.229.044q-.143.005-.335.008a.8.8,0,0,1-.332-.105.515.515,0,0,1-.188-.287,1.474,1.474,0,0,1,.488-1.314,3.134,3.134,0,0,1,1.6-1,3.606,3.606,0,0,1,1.134-.138,1.888,1.888,0,0,1,.75.172,1.172,1.172,0,0,1,.475.4,1.842,1.842,0,0,1,.261.444q.058.161.125.416.283,1.08.4,1.721.131.622.253,1.087a2.749,2.749,0,0,0,.352.853.765.765,0,0,0,.391.33.873.873,0,0,0,.357.018,1.139,1.139,0,0,1,.3-.015.181.181,0,0,1,.167.148q.083.315-.862.563a1.144,1.144,0,0,1-.73-.033,1.672,1.672,0,0,1-.5-.3,1,1,0,0,0-.19-.175.542.542,0,0,0-.092.137q-.081.117-.241.3a3.95,3.95,0,0,1-.349.38,2.327,2.327,0,0,1-.481.367,1.865,1.865,0,0,1-.572.262,1.933,1.933,0,0,1-1.513-.084A1.467,1.467,0,0,1,344.176,421.722Zm1.11-.532a1.077,1.077,0,0,0,1.45.821,1.675,1.675,0,0,0,.628-.293,1.213,1.213,0,0,0,.349-.38,1.07,1.07,0,0,0,.108-.445,1.566,1.566,0,0,0-.027-.409,3.526,3.526,0,0,0-.08-.364l-.284-1.08q-.035-.135-.14-.107a.252.252,0,0,0-.071.035.25.25,0,0,1-.071.035l-.415.189q-.086.039-.4.2a2.913,2.913,0,0,0-.429.257q-.1.091-.309.289a.952.952,0,0,0-.259.357,2.07,2.07,0,0,0-.085.407A1.21,1.21,0,0,0,345.287,421.19Zm9.37-11.966a.478.478,0,0,1-.02-.139.228.228,0,0,1,.085-.1.484.484,0,0,1,.149-.1l.291-.173q.19-.13.377-.275.108-.076.332-.263a4.206,4.206,0,0,1,.388-.294.986.986,0,0,1,.31-.162q.18-.047.255.238.016.06.064.368t.153.825q.1.518.261,1.117l.221.84q.185.7.3,1.2.111.484.194.8l1.174,4.468a2.661,2.661,0,0,0,.183.513.837.837,0,0,0,.447.3,1.657,1.657,0,0,0,.872-.037.178.178,0,0,1,.155.04.249.249,0,0,1,.1.134q.055.21-.41.332-.135.035-.72.125-.567.1-.821.168a4.718,4.718,0,0,0-.734.257,3.487,3.487,0,0,1-.449.182.289.289,0,0,1-.2-.013q-.072-.029-.084-.074a.2.2,0,0,1,.017-.181.542.542,0,0,1,.2-.149,1.454,1.454,0,0,0,.205-.134.611.611,0,0,0,.243-.416,2.125,2.125,0,0,0-.094-.664,1.643,1.643,0,0,0-.062-.176l-.055-.21-.291-1.11q-.146-.555-.742-2.947t-.872-3.441a1.552,1.552,0,0,0-.281-.583q-.18-.257-.331-.282a1.9,1.9,0,0,0-.616.1Q354.689,409.344,354.657,409.224Zm13.386,6.229a1.726,1.726,0,0,1-.011-.959,1.462,1.462,0,0,1,.525-.747,5.621,5.621,0,0,1,.873-.582q.463-.25,1.136-.555a.929.929,0,0,1,.131-.05.406.406,0,0,1,.116-.047q.071-.035.127-.065a.57.57,0,0,0,.127-.065.149.149,0,0,0,.059-.08.252.252,0,0,0,.006-.162q-.04-.15-.091-.409-.056-.274-.083-.379a1.493,1.493,0,0,0-.818-1.1,1.619,1.619,0,0,0-1.062-.138q-1.08.283-.843,1.183a1.939,1.939,0,0,0,.109.292,1.87,1.87,0,0,1,.093.232q.079.3-.191.371a2.146,2.146,0,0,1-.229.044q-.143.005-.335.008a.792.792,0,0,1-.332-.105.514.514,0,0,1-.188-.287,1.474,1.474,0,0,1,.488-1.314,3.133,3.133,0,0,1,1.6-1,3.6,3.6,0,0,1,1.134-.138,1.884,1.884,0,0,1,.75.172,1.17,1.17,0,0,1,.475.4,1.839,1.839,0,0,1,.261.444q.058.161.125.416.284,1.08.4,1.721.132.623.254,1.087a2.746,2.746,0,0,0,.352.853.765.765,0,0,0,.391.33.873.873,0,0,0,.357.018,1.134,1.134,0,0,1,.3-.015.181.181,0,0,1,.167.148q.083.315-.862.563a1.143,1.143,0,0,1-.73-.033,1.668,1.668,0,0,1-.5-.3,1,1,0,0,0-.19-.174.548.548,0,0,0-.092.136q-.081.118-.241.3a3.95,3.95,0,0,1-.349.38,2.324,2.324,0,0,1-.481.367,1.868,1.868,0,0,1-.572.262,1.933,1.933,0,0,1-1.513-.084A1.467,1.467,0,0,1,368.043,415.453Zm1.11-.532a1.077,1.077,0,0,0,1.45.821,1.677,1.677,0,0,0,.628-.293,1.21,1.21,0,0,0,.349-.38,1.069,1.069,0,0,0,.107-.445,1.563,1.563,0,0,0-.027-.41,3.535,3.535,0,0,0-.08-.364l-.284-1.08q-.035-.135-.14-.107a.256.256,0,0,0-.071.035.257.257,0,0,1-.071.035l-.415.189q-.086.039-.4.2a2.911,2.911,0,0,0-.429.257q-.1.091-.309.289a.953.953,0,0,0-.259.357,2.06,2.06,0,0,0-.085.407A1.206,1.206,0,0,0,369.153,414.921Zm10.633-7.281a.263.263,0,0,1,.132-.291q.186-.145.683-.452a9.236,9.236,0,0,0,.928-.677.708.708,0,0,1,.194-.115q.195-.051.274.249.016.06.036.2l.055.21q.083.315.133.446a.708.708,0,0,0,.073.157.105.105,0,0,0,.083.01,1.211,1.211,0,0,0,.146-.359,2.854,2.854,0,0,1,.4-.745,1.22,1.22,0,0,1,.712-.524,1.46,1.46,0,0,1,.779.1q.37.127.429.352a.981.981,0,0,1,.006.511.822.822,0,0,1-.165.348.344.344,0,0,1-.13.114,1.176,1.176,0,0,1-.482-.066,1.389,1.389,0,0,0-.752.005,1.157,1.157,0,0,0-.678.531.932.932,0,0,0-.187.69l.41,1.559.232.885q.1.326.125.416l.035.135a.574.574,0,0,1,.05.131.789.789,0,0,0,.352.485.872.872,0,0,0,.566.14q.094-.009.233-.029t.218-.025a.544.544,0,0,1,.173-.013.177.177,0,0,1,.136.029.149.149,0,0,1,.073.093q.063.24-.117.287-.255.067-.7.136-.443.084-.593.124-.48.126-.982.29t-.558.195a.658.658,0,0,1-.233.029.176.176,0,0,1-.106-.036.217.217,0,0,1-.039-.086.255.255,0,0,1,.128-.306.568.568,0,0,0,.366-.5,5.632,5.632,0,0,0-.241-1.283q-.256-.975-.436-1.6l-.209-.795a2.182,2.182,0,0,0-.09-.281l-.047-.18a.715.715,0,0,0-.116-.258.463.463,0,0,0-.276-.136,1.059,1.059,0,0,0-.5.036l-.075.02a.419.419,0,0,0-.094.009Q379.85,407.88,379.786,407.64Z" transform="translate(-290.052 -342.831)" fill="#fff"/>
  <path id="Path_28" data-name="Path 28" d="M344.176,421.722a1.726,1.726,0,0,1-.011-.959,1.463,1.463,0,0,1,.525-.747,5.627,5.627,0,0,1,.873-.582q.463-.25,1.136-.555a.938.938,0,0,1,.131-.051.405.405,0,0,1,.116-.047c.047-.023.09-.045.127-.065a.562.562,0,0,0,.127-.065.149.149,0,0,0,.059-.08.25.25,0,0,0,.006-.162q-.039-.15-.091-.409t-.084-.379a1.493,1.493,0,0,0-.818-1.1,1.619,1.619,0,0,0-1.062-.138q-1.08.284-.843,1.183a1.958,1.958,0,0,0,.109.292,1.922,1.922,0,0,1,.093.232q.079.3-.191.371a2.16,2.16,0,0,1-.229.044q-.143.005-.335.008a.8.8,0,0,1-.332-.105.515.515,0,0,1-.188-.287,1.474,1.474,0,0,1,.488-1.314,3.134,3.134,0,0,1,1.6-1,3.606,3.606,0,0,1,1.134-.138,1.888,1.888,0,0,1,.75.172,1.172,1.172,0,0,1,.475.4,1.842,1.842,0,0,1,.261.444q.058.161.125.416.283,1.08.4,1.721.131.622.253,1.087a2.749,2.749,0,0,0,.352.853.765.765,0,0,0,.391.33.873.873,0,0,0,.357.018,1.139,1.139,0,0,1,.3-.015.181.181,0,0,1,.167.148q.083.315-.862.563a1.144,1.144,0,0,1-.73-.033,1.672,1.672,0,0,1-.5-.3,1,1,0,0,0-.19-.175.542.542,0,0,0-.092.137q-.081.117-.241.3a3.95,3.95,0,0,1-.349.38,2.327,2.327,0,0,1-.481.367,1.865,1.865,0,0,1-.572.262,1.933,1.933,0,0,1-1.513-.084A1.467,1.467,0,0,1,344.176,421.722Zm1.11-.532a1.077,1.077,0,0,0,1.45.821,1.675,1.675,0,0,0,.628-.293,1.213,1.213,0,0,0,.349-.38,1.07,1.07,0,0,0,.108-.445,1.566,1.566,0,0,0-.027-.409,3.526,3.526,0,0,0-.08-.364l-.284-1.08q-.035-.135-.14-.107a.252.252,0,0,0-.071.035.25.25,0,0,1-.071.035l-.415.189q-.086.039-.4.2a2.913,2.913,0,0,0-.429.257q-.1.091-.309.289a.952.952,0,0,0-.259.357,2.07,2.07,0,0,0-.085.407A1.21,1.21,0,0,0,345.287,421.19Zm9.37-11.966a.478.478,0,0,1-.02-.139.228.228,0,0,1,.085-.1.484.484,0,0,1,.149-.1l.291-.173q.19-.13.377-.275.108-.076.332-.263a4.206,4.206,0,0,1,.388-.294.986.986,0,0,1,.31-.162q.18-.047.255.238.016.06.064.368t.153.825q.1.518.261,1.117l.221.84q.185.7.3,1.2.111.484.194.8l1.174,4.468a2.661,2.661,0,0,0,.183.513.837.837,0,0,0,.447.3,1.657,1.657,0,0,0,.872-.037.178.178,0,0,1,.155.04.249.249,0,0,1,.1.134q.055.21-.41.332-.135.035-.72.125-.567.1-.821.168a4.718,4.718,0,0,0-.734.257,3.487,3.487,0,0,1-.449.182.289.289,0,0,1-.2-.013q-.072-.029-.084-.074a.2.2,0,0,1,.017-.181.542.542,0,0,1,.2-.149,1.454,1.454,0,0,0,.205-.134.611.611,0,0,0,.243-.416,2.125,2.125,0,0,0-.094-.664,1.643,1.643,0,0,0-.062-.176l-.055-.21-.291-1.11q-.146-.555-.742-2.947t-.872-3.441a1.552,1.552,0,0,0-.281-.583q-.18-.257-.331-.282a1.9,1.9,0,0,0-.616.1Q354.689,409.344,354.657,409.224Zm13.386,6.229a1.726,1.726,0,0,1-.011-.959,1.462,1.462,0,0,1,.525-.747,5.621,5.621,0,0,1,.873-.582q.463-.25,1.136-.555a.929.929,0,0,1,.131-.05.406.406,0,0,1,.116-.047q.071-.035.127-.065a.57.57,0,0,0,.127-.065.149.149,0,0,0,.059-.08.252.252,0,0,0,.006-.162q-.04-.15-.091-.409-.056-.274-.083-.379a1.493,1.493,0,0,0-.818-1.1,1.619,1.619,0,0,0-1.062-.138q-1.08.283-.843,1.183a1.939,1.939,0,0,0,.109.292,1.87,1.87,0,0,1,.093.232q.079.3-.191.371a2.146,2.146,0,0,1-.229.044q-.143.005-.335.008a.792.792,0,0,1-.332-.105.514.514,0,0,1-.188-.287,1.474,1.474,0,0,1,.488-1.314,3.133,3.133,0,0,1,1.6-1,3.6,3.6,0,0,1,1.134-.138,1.884,1.884,0,0,1,.75.172,1.17,1.17,0,0,1,.475.4,1.839,1.839,0,0,1,.261.444q.058.161.125.416.284,1.08.4,1.721.132.623.254,1.087a2.746,2.746,0,0,0,.352.853.765.765,0,0,0,.391.33.873.873,0,0,0,.357.018,1.134,1.134,0,0,1,.3-.015.181.181,0,0,1,.167.148q.083.315-.862.563a1.143,1.143,0,0,1-.73-.033,1.668,1.668,0,0,1-.5-.3,1,1,0,0,0-.19-.174.548.548,0,0,0-.092.136q-.081.118-.241.3a3.95,3.95,0,0,1-.349.38,2.324,2.324,0,0,1-.481.367,1.868,1.868,0,0,1-.572.262,1.933,1.933,0,0,1-1.513-.084A1.467,1.467,0,0,1,368.043,415.453Zm1.11-.532a1.077,1.077,0,0,0,1.45.821,1.677,1.677,0,0,0,.628-.293,1.21,1.21,0,0,0,.349-.38,1.069,1.069,0,0,0,.107-.445,1.563,1.563,0,0,0-.027-.41,3.535,3.535,0,0,0-.08-.364l-.284-1.08q-.035-.135-.14-.107a.256.256,0,0,0-.071.035.257.257,0,0,1-.071.035l-.415.189q-.086.039-.4.2a2.911,2.911,0,0,0-.429.257q-.1.091-.309.289a.953.953,0,0,0-.259.357,2.06,2.06,0,0,0-.085.407A1.206,1.206,0,0,0,369.153,414.921Zm10.633-7.281a.263.263,0,0,1,.132-.291q.186-.145.683-.452a9.236,9.236,0,0,0,.928-.677.708.708,0,0,1,.194-.115q.195-.051.274.249.016.06.036.2l.055.21q.083.315.133.446a.708.708,0,0,0,.073.157.105.105,0,0,0,.083.01,1.211,1.211,0,0,0,.146-.359,2.854,2.854,0,0,1,.4-.745,1.22,1.22,0,0,1,.712-.524,1.46,1.46,0,0,1,.779.1q.37.127.429.352a.981.981,0,0,1,.006.511.822.822,0,0,1-.165.348.344.344,0,0,1-.13.114,1.176,1.176,0,0,1-.482-.066,1.389,1.389,0,0,0-.752.005,1.157,1.157,0,0,0-.678.531.932.932,0,0,0-.187.69l.41,1.559.232.885q.1.326.125.416l.035.135a.574.574,0,0,1,.05.131.789.789,0,0,0,.352.485.872.872,0,0,0,.566.14q.094-.009.233-.029t.218-.025a.544.544,0,0,1,.173-.013.177.177,0,0,1,.136.029.149.149,0,0,1,.073.093q.063.24-.117.287-.255.067-.7.136-.443.084-.593.124-.48.126-.982.29t-.558.195a.658.658,0,0,1-.233.029.176.176,0,0,1-.106-.036.217.217,0,0,1-.039-.086.255.255,0,0,1,.128-.306.568.568,0,0,0,.366-.5,5.632,5.632,0,0,0-.241-1.283q-.256-.975-.436-1.6l-.209-.795a2.182,2.182,0,0,0-.09-.281l-.047-.18a.715.715,0,0,0-.116-.258.463.463,0,0,0-.276-.136,1.059,1.059,0,0,0-.5.036l-.075.02a.419.419,0,0,0-.094.009Q379.85,407.88,379.786,407.64Z" transform="translate(-290.052 -342.831)" fill="url(#radial-gradient)"/>
  <rect id="Rectangle_2" data-name="Rectangle 2" width="5" height="4" transform="translate(42 71)" fill="#2b2a28"/>
  <path id="Path_29" data-name="Path 29" d="M269.792,450.792l-1.666-.69a.155.155,0,0,0-.138.009l-3.639,2.13-.927.542-.451.237a.023.023,0,0,0-.012.02.024.024,0,0,1-.011.02l-.452.264-.373.218a.155.155,0,0,0,.131.28l7.532-2.743A.155.155,0,0,0,269.792,450.792Z" transform="translate(-221.423 -380.317)" fill="#c4c4c4"/>
  <path id="Path_30" data-name="Path 30" d="M269.271,452l-5.038,2.79-.233.93.31-.233.233-.155.116-.078.736-.465,1.24-.93Z" transform="translate(-223.074 -381.931)" fill="#c4c4c4"/>
  <path id="Path_31" data-name="Path 31" d="M298.777,443.032l.374.815.376.365.231-.455.05.349,1.208.3-.8.083-.365-.2-.1.3-.261.008-.106.332-.2.222-.266.5L299.2,445l.147-.242.032-.409-.348-.35Z" transform="translate(-252.46 -374.353)" fill="#2b2a28"/>
  <path id="Path_32" data-name="Path 32" d="M346.777,475.032l.374.815.376.365.231-.455.05.349,1.208.3-.8.083-.365-.2-.1.3-.261.008-.106.332-.2.222-.266.5L347.2,477l.147-.242.032-.409-.348-.35Z" transform="translate(-293.019 -401.392)" fill="#2b2a28"/>
  <path id="Path_33" data-name="Path 33" d="M436.735,465.947l.012.9.2.486.4-.323-.1.34.985.761-.769-.249-.254-.329-.211.238-.242-.1-.231.26-.274.121-.446.351.523-.483.233-.162.195-.361-.177-.461Z" transform="translate(-368.243 -393.715)" fill="#2b2a28"/>
  <path id="Path_34" data-name="Path 34" d="M500.735,465.947l.012.9.2.486.4-.323-.1.34.985.761-.769-.249-.254-.329-.211.238-.242-.1-.231.26-.274.121-.446.351.523-.483.233-.162.195-.361-.177-.461Z" transform="translate(-422.321 -393.715)" fill="#2b2a28"/>
  <path id="Path_35" data-name="Path 35" d="M582.463,427.964l.885.148.513-.107-.247-.446.317.155.924-.834-.382.712-.369.191.2.25-.14.22.215.274.07.291.266.5-.382-.6-.118-.258-.321-.256-.485.092Z" transform="translate(-492.169 -360.705)" fill="#2b2a28"/>
  <path id="Path_36" data-name="Path 36" d="M423.777,411.032l.374.815.376.365.231-.455.05.349,1.208.3-.8.083-.365-.2-.1.3-.261.008-.106.332-.2.221-.266.5L424.2,413l.147-.242.032-.409-.348-.35Z" transform="translate(-358.083 -347.313)" fill="#2b2a28"/>
  <path id="Path_37" data-name="Path 37" d="M533.33,458.5l-.588.678-.177.494.51.022-.3.19.23,1.223-.409-.7.029-.415-.316.037-.115-.235-.346.041-.285-.091-.567-.034.712-.013.282.033.386-.14.174-.462Z" transform="translate(-448.684 -387.422)" fill="#2b2a28"/>
  <path id="Path_38" data-name="Path 38" d="M605.33,440.5l-.588.678-.177.494.51.022-.3.19.23,1.223-.409-.7.029-.415-.316.037-.115-.235-.346.041-.285-.091-.567-.034.712-.013.282.033.386-.14.174-.462Z" transform="translate(-509.522 -372.212)" fill="#2b2a28"/>
  <path id="Path_39" data-name="Path 39" d="M591.538,448.009l-.891.1-.463.246.362.36-.348-.06-.655,1.058.168-.791.3-.287-.258-.185.073-.251-.283-.2-.149-.26-.4-.407.535.47.186.215.38.156.44-.224Z" transform="translate(-497.693 -377.988)" fill="#2b2a28"/>
  <path id="Path_40" data-name="Path 40" d="M358.059,486.82l.493.744.206.467-.307-.135.219.249.1.955.111-.461-.1-.356.2.126.024-.162.219.138.156.009.339.142-.437-.225-.165-.057-.263-.233-.2-.439Z" transform="translate(-302.552 -411.353)" fill="#2b2a28"/>
  <path id="Path_41" data-name="Path 41" d="M515.254,465.38l-.321-.833-.1-.5.27.2-.16-.29.106-.955-.208.426.021.369-.168-.166-.058.153-.184-.182-.15-.042-.3-.211.378.314.149.091.207.285.1.472Z" transform="translate(-434.319 -391.225)" fill="#2b2a28"/>
  <path id="Path_42" data-name="Path 42" d="M277.592,452.923l.364.793.366.355.225-.442.048.34,1.176.289-.782.081-.355-.193-.094.295-.254.007-.1.323-.2.215-.259.488.275-.636.143-.236.031-.4-.339-.341Z" transform="translate(-234.559 -382.71)" fill="#2b2a28"/>
  <path id="Path_43" data-name="Path 43" d="M282.453,457.148l.391.78.378.342.209-.45.06.338,1.185.249-.779.108-.362-.181-.084.3-.254.016-.092.326-.188.222-.242.5.253-.645.135-.241.017-.4-.35-.329Z" transform="translate(-238.667 -386.281)" fill="#2b2a28"/>
  <path id="Path_44" data-name="Path 44" d="M335.127,481.555l-.334-.806-.353-.369-.241.434-.036-.342L333,480.139l.785-.052.348.206.105-.291.254,0,.115-.319.2-.208.277-.478-.3.625-.152.23-.046.4.326.353Z" transform="translate(-281.378 -404.745)" fill="#2b2a28"/>
  <path id="Path_45" data-name="Path 45" d="M250.348,486.83l-.619.615-.207.466.493.058-.3.163.135,1.2-.346-.706.058-.4-.309.013-.095-.236-.338.015-.27-.109-.547-.074.692.039.271.053.384-.109.2-.435Z" transform="translate(-209.555 -411.361)" fill="#2b2a28"/>
  <path id="Path_46" data-name="Path 46" d="M420.472,431.958l-.866.106-.449.241.354.348-.338-.057-.632,1.033.16-.77.292-.28-.252-.179.07-.244-.276-.2-.146-.252-.387-.394.522.455.182.208.37.15.427-.22Z" transform="translate(-353.201 -364.451)" fill="#2b2a28"/>
  <path id="Path_47" data-name="Path 47" d="M529.472,442.958l-.866.106-.449.241.354.348-.338-.057-.632,1.033.16-.77.292-.28-.6-.424h.422l-.344-.271-.078.077.078-.155-.465-.494.522.455.182.208.37.15.427-.22Z" transform="translate(-445.304 -373.746)" fill="#2b2a28"/>
  <path id="Path_48" data-name="Path 48" d="M512.472,441.958l-.866.106-.449.241.354.348-.338-.057-.632,1.033.16-.77.292-.28-.6-.424h.422l-.344-.271-.078.077.078-.155-.465-.494.522.455.182.208.37.15.427-.22Z" transform="translate(-430.939 -372.901)" fill="#2b2a28"/>
  <path id="Path_49" data-name="Path 49" d="M595.422,418.536l-.841-.231-.508.052.195.456-.292-.181-.977.715.44-.651.376-.149-.4-.621.391.16-.215-.381-.1.042.131-.114-.242-.634.31.619.089.261.285.279.479-.041Z" transform="translate(-501.073 -352.356)" fill="#2b2a28"/>
  <path id="Path_50" data-name="Path 50" d="M363.348,464.83l-.619.615-.207.466.493.058-.3.163.135,1.2-.346-.706.058-.4-.309.013-.095-.236-.338.015-.27-.109-.547-.074.692.039.271.053.384-.109.2-.435Z" transform="translate(-305.037 -392.772)" fill="#2b2a28"/>
  <path id="Path_51" data-name="Path 51" d="M435.528,445.213l-.849.2-.421.289.389.307-.343-.02-.515,1.1.075-.783.259-.311-.27-.151.043-.251-.3-.165-.173-.235-.428-.35.569.4.2.187.384.109.4-.265Z" transform="translate(-365.876 -375.882)" fill="#2b2a28"/>
  <path id="Path_52" data-name="Path 52" d="M371.8,483.982l.618.616.467.2.056-.493.164.3,1.2-.14-.7.35-.4-.056.015.309-.235.1.016.338-.108.271-.072.548.036-.692.051-.271-.11-.384-.436-.2Z" transform="translate(-314.166 -408.955)" fill="#2b2a28"/>
  <path id="Path_53" data-name="Path 53" d="M271.248,490.4l-.426.159-.193.15.077.112-.275.115-.146.265-.1.349.042-.846-.334.124.12-.338-.169-.17-.049-.508Z" transform="translate(-227.975 -413.882)" fill="#2b2a28"/>
  <path id="Path_54" data-name="Path 54" d="M254.509,515.467l.786.22-.5-.33.748.276.286-.031-.128-.153.524-.97-.3.938.387-.029-.009-.257-.063-.551.054.518-.065-.62.112.277.016-.207.063-.55.012.982-.118.675.13.307,1.243.955-.734-.31-.248-.171-.29.113.176-.273-.387-.482-.521.041.338.233-.448.04Z" transform="translate(-215.055 -434.319)" fill="#2b2a28"/>
  <path id="Path_55" data-name="Path 55" d="M303.35,498.052l-.661,1.159-.469-.317.009.491.391.271-.327.778.047-.715-.593-.447-.746-.094.765-.191.021-.325.773.051Z" transform="translate(-254.339 -420.844)" fill="#2b2a28"/>
  <path id="Path_56" data-name="Path 56" d="M283.468,503.251l-1.282.368-.115-.555-.337.357.091.467-.778.328.533-.479-.112-.735-.468-.589.68.4.243-.218.517.576Z" transform="translate(-237.439 -424.529)" fill="#2b2a28"/>
  <path id="Path_57" data-name="Path 57" d="M380.163,496.406l-.486,1.242-.51-.245.08.484.426.211-.211.817-.057-.714-.652-.357-.752.015.729-.3-.026-.325.772-.062Z" transform="translate(-319.402 -419.453)" fill="#2b2a28"/>
  <path id="Path_58" data-name="Path 58" d="M498.117,454.826l.222-1.316.55.136-.177-.458-.46-.12.039-.843.2.687.711.216.733-.168-.653.442.092.313-.743.218Z" transform="translate(-420.898 -382.122)" fill="#2b2a28"/>
  <path id="Path_59" data-name="Path 59" d="M492.649,441.236l.8-1.07.428.371.051-.488-.355-.316.419-.733-.133.7.535.516.73.184-.783.1-.061.32-.761-.144Z" transform="translate(-416.278 -370.946)" fill="#2b2a28"/>
  <path id="Path_60" data-name="Path 60" d="M573.915,417.682l.854-1.148.459.4.054-.524-.381-.339.449-.786-.142.755.574.554.783.2-.839.1-.065.344-.816-.155Z" transform="translate(-484.946 -350.906)" fill="#2b2a28"/>
  <path id="Path_61" data-name="Path 61" d="M520.729,455.68l-.29-.846.367-.1-.25-.213-.309.077-.246-.509.339.34.488-.1L521.2,454l-.243.469.122.38-.14-.178v.259l-.067-.149-.128.208Z" transform="translate(-439.389 -383.621)" fill="#2b2a28"/>
  <path id="Path_62" data-name="Path 62" d="M580.419,406.159l.725-.523.2.323.131-.3-.163-.273.415-.384-.227.423.238.437.429.264-.519-.1-.328.227.13-.185-.248.075.123-.107-.237-.062Z" transform="translate(-490.442 -342.217)" fill="#2b2a28"/>
  <path id="Path_63" data-name="Path 63" d="M597.419,440.159l.725-.523.2.323.131-.3-.163-.273.415-.384-.227.423.238.437.429.264-.519-.1-.328.227.13-.185-.248.075.123-.107-.237-.062Z" transform="translate(-504.807 -370.946)" fill="#2b2a28"/>
  <path id="Path_64" data-name="Path 64" d="M446.163,478.406l-.486,1.242-.51-.245.08.484.426.211-.211.817-.057-.714-.652-.357-.752.015.729-.3-.026-.325.772-.062Z" transform="translate(-375.171 -404.243)" fill="#2b2a28"/>
  <path id="Path_65" data-name="Path 65" d="M279.468,504.251l-1.282.368-.115-.555-.337.357.091.467-.778.328.533-.479-.112-.735-.468-.589.68.4.243-.218.517.576Z" transform="translate(-234.059 -425.374)" fill="#2b2a28"/>
  <path id="Path_66" data-name="Path 66" d="M292.082,527.495l-.017-.319.042-.472.119.207-.009-.576.2-.42.33-.54-.952,1.284-.117-.231-.3.527-.329.234-.629.761Z" transform="translate(-245.395 -443.931)" fill="#2b2a28"/>
  <path id="Path_67" data-name="Path 67" d="M340.081,500.495l.025-.791.119.207-.009-.576.2-.42.33-.54-.952,1.284-.117-.231-.3.527-.329.234-.63.761,1.176-.774Z" transform="translate(-285.953 -421.116)" fill="#2b2a28"/>
  <path id="Path_68" data-name="Path 68" d="M242.77,454.69l.605,3.71-1.769-1.06-.215.724-.386-.748-.656.25,1.2-1.112.09-.353Z" transform="translate(-203.09 -384.204)" fill="#2b2a28"/>
  <path id="Path_69" data-name="Path 69" d="M368.854,496.657l-.287.238-.109.168.09.066-.182.164-.042.245.019.3-.2-.668-.226.186,0-.3-.177-.086-.175-.381Z" transform="translate(-310.59 -419.61)" fill="#2b2a28"/>
  <path id="Path_70" data-name="Path 70" d="M518.854,428.657l-.287.238-.109.168.09.066-.182.164-.042.245.019.3-.2-.668-.226.186,0-.3-.177-.086-.175-.381Z" transform="translate(-437.337 -362.151)" fill="#2b2a28"/>
  <path id="Path_71" data-name="Path 71" d="M606.836,405.048l-.373-.021-.195.049.021.109-.245,0-.2.152-.188.231.311-.623-.292-.017.2-.215-.071-.183.131-.4Z" transform="translate(-511.77 -341.48)" fill="#2b2a28"/>
  <path id="Path_72" data-name="Path 72" d="M427.255,453.537l-.072.366.022.2.111-.006-.038.242.123.216.2.219-.573-.394-.058.287-.185-.23-.191.045-.376-.185Z" transform="translate(-360.146 -383.229)" fill="#2b2a28"/>
  <path id="Path_73" data-name="Path 73" d="M358.284,510.335l.312.523.257.24.072-.279.072.221.714.222-.382-.013-.287-.094-.075.081-.112.041-.034.158.084.174-.126.069-.086.307.076-.4.052-.148-.034-.256-.239-.23Z" transform="translate(-302.742 -431.222)" fill="#2b2a28"/>
</svg>
